# xmcd
#
# Track frame offsets: 
#        150
#        16672
#        35307
#        52460
#        70350
#        84575
#        102260
#        117925
#        132197
#        146550
#        163832
#
# Disc length: 2376 seconds
#
# Revision: 22
# Processed by: cddbd v1.5.2PL0 Copyright (c) Steve Scherf et al.
# Submitted via: ExactAudioCopyFreeDBPlugin 1.0
#
DISCID=9809460b
DTITLE=Brooks and Dunn - If You See Her
DYEAR=1998
DGENRE=Country
TTITLE0=How Long Gone
TTITLE1=I Can't Get Over You
TTITLE2=South Of Santa Fe
TTITLE3=If You See Him, If You See Her (W Reba Mcentire)
TTITLE4=Brand New Whiskey
TTITLE5=Born And Raised In Black And White
TTITLE6=Your Love Don't Take A Backseat To Nothing
TTITLE7=Husbands And Wives
TTITLE8=Way Gone
TTITLE9=When Love Dies
TTITLE10=You're My Angel
EXTD=YEAR: 1998
EXTT0=
EXTT1=
EXTT2=
EXTT3=
EXTT4=
EXTT5=
EXTT6=
EXTT7=
EXTT8=
EXTT9=
EXTT10=
PLAYORDER=
